<svg xmlns="http://www.w3.org/2000/svg" viewBox="0 0 640 640"><g id="white" data-name="white"><path d="M106,292.11a139.06,139.06,0,0,1-4-37.39c.74-19.86,3.23-32.23,2-41.81s-7.08-52.79,10.44-77.32,22.19-42,77.08-63.07,81.76-18.68,91.1-15.18,35,21,38.54,22.19,35,8.18,42.05,12.85,35,16.35,40.87,17.52,99.89,13.8,125.27,82.81,54,86,54,86S606,293.11,612,348s3.82,76.63-12,110C583.91,492,550,545,499,575c-46.95,27.62-103,41-179,40-63.13-.83-107-31.47-125-69s5.73-82.09,5.73-82.09L144.18,320.7l-12-32.65Z" style="fill:#fff"/></g><g id="black" data-name="black"><path d="M228.27,100c-10.78,6.47-35,0-42-12.85s-30.37-47.88,15.18-63.06S264.48,42.74,268,49.75s10.51,32.7,2.34,37.37-10.51,7-17.52,4.68-1.17-10.52-7-11.68S234.11,96.47,228.27,100Z" style="fill:#0d0c1d"/><path d="M101.56,178.8c-2.34,9.35,4.67,30.37,1.16,31.54S93.38,191.65,91,183.48s-9.34-8.18-8.17-32.71,11.68-25.69,15.18-24.52,15.18,2.33,16.35,9.34S103.89,169.46,101.56,178.8Z" style="fill:#0d0c1d"/><path d="M171.63,181.14c-10.65,9.18-12.85,36.2,10.51,40.88s31.29,5.27,41.92-3.79,4.8-26.58-1-27.75-11.1,1.75-15.77.59S188.56,166.54,171.63,181.14Z" style="fill:#0d0c1d"/><path d="M133.67,275.16c1.05.52,2.34-15.19,1.17-22.19s-5.84-18.69-10.51-18.69S119.66,246,122,250.63s8.18,9.34,9.35,11.68S131.34,274,133.67,275.16Z" style="fill:#0d0c1d"/><path d="M148.27,285.08c4.67-4.67,12.65-8.51,15.67-8.34s5.35,4.84,6.52,2.5,2.34-8.17,4.67-7,5.84,21,1.17,30.36-11.68,3.5-14,4.67-4.67,5.84-8.18,4.67-14-4.67-14-11.68S144.77,288.59,148.27,285.08Z" style="fill:#0d0c1d"/><path d="M176.89,313.7c3.36-2.53,8.17,0,14-3.51s26.86-16.35,28-19.85,4.85-12.84,9.34-12.85,7,1.17,5.84,5.84c-4.82,19.3-17.52,14-28,23.36s-11.68,12.85-15.18,12.85-8.3-1.17-10.57,0-2.28,9.25-3.44,9.88-9.35,5.3-11.68,3S172.21,317.2,176.89,313.7Z" style="fill:#0d0c1d"/><path d="M188,341.14c22.14,1.9,33.76-38,42-40.59s19.47,4.95,21.44,0-5-15.47-3.87-20.14,8.18-29.2,11.68-35,22.19-19.85,24.53-24.52,1.17-29.2,8.17-32.7,12.85,5.84,18.69,4.67,24.53-38.54,45.55-43.21,121.59-3.73,157.14,26.74,70,102.31,70,102.31S516.74,263.48,463,295s-53.72,56.06-57.23,68.91-35,24.52-61.9,40.87S243.82,443.4,236.63,455.05s-3.69,15.14-4.85,17.48-8.18,14-40.88-3.5S129,382.6,132.51,359.24s7-39.7,11.67-38.54S167.54,339.39,188,341.14Z" style="fill:#0d0c1d"/><path d="M53.09,279.83c6.14-4.1,72.41-3.51,77.08,3.5s1.53,7-6.24,8.78-94.2,36.77-94.2,36.77-2.34-25.7,2.34-29.2,7-1.17,7-1.17-4.67-9.34,0-12.84,10.51-1.17,10.51-1.17S49.58,282.16,53.09,279.83Z" style="fill:#0d0c1d"/></g><g id="red" data-name="red"><path d="M195,303.77c-4.05.81-11.19,0-18.69,2.33s-11.68,7-12.85,12.85-2.33,17.52,5.84,12.85S181.5,319.16,182.7,317s1.61-2.14,8.78-6.23C199.66,306.1,206.67,301.43,195,303.77Z" style="fill:#f66"/></g></svg>